SplineFontDB: 3.0
FontName: PneuCuniforme
FullName: PneuCuniforme
FamilyName: PneuCuniforme
Weight: Regular
Copyright: Copyright (c) 2014, Pierre VALDIVIELSO
UComments: "2014-7-26: Created with FontForge (http://fontforge.org)" 
Version: 000.500
ItalicAngle: 0
UnderlinePosition: -100
UnderlineWidth: 50
Ascent: 800
Descent: 200
LayerCount: 2
Layer: 0 0 "Back"  1
Layer: 1 0 "Fore"  0
XUID: [1021 1007 647262216 6359362]
FSType: 0
OS2Version: 0
OS2_WeightWidthSlopeOnly: 0
OS2_UseTypoMetrics: 1
CreationTime: 1406393362
ModificationTime: 1406474864
OS2TypoAscent: 0
OS2TypoAOffset: 1
OS2TypoDescent: 0
OS2TypoDOffset: 1
OS2TypoLinegap: 90
OS2WinAscent: 0
OS2WinAOffset: 1
OS2WinDescent: 0
OS2WinDOffset: 1
HheadAscent: 0
HheadAOffset: 1
HheadDescent: 0
HheadDOffset: 1
MarkAttachClasses: 1
DEI: 91125
Encoding: ISO8859-1
UnicodeInterp: none
NameList: AGL For New Fonts
DisplaySize: -48
AntiAlias: 1
FitToEm: 1
WinInfo: 51 17 7
BeginPrivate: 0
EndPrivate
Grid
360 1300 m 0
 360 -700 l 1024
856 1300 m 0
 856 -700 l 1024
964 1300 m 0
 964 -700 l 1024
-1000 1553.99995369 m 0
 2000 1553.99995369 l 1024
-1000 973.632354736 m 0
 2000 973.632354736 l 1024
EndSplineSet
BeginChars: 256 29

StartChar: A
Encoding: 65 65 0
Width: 755
VWidth: 0
Flags: W
HStem: 232 72<295.797 359.359>
VStem: 293 69<234.812 301.188> 638 28<-15 9.84487>
LayerCount: 2
Fore
SplineSet
537 777 m 1
 470.783600521 711.076593439 409.374512644 645.668255979 352.646976703 577.153109251 c 1
 481.624671621 417.113112555 585.158442454 235.914109808 666 -12 c 1
 638 -24 l 1
 558.967808714 219.794217186 458.403572869 396.300795122 332.701943599 552.689714797 c 1
 205.068136245 393.664129832 102.007342652 216.022027955 22 -24 c 1
 -5 -12 l 1
 76.166991498 232.17736609 182.039284904 414.133971818 312.926333155 576.88377539 c 1
 256.31616111 645.011409448 194.777235871 709.700136604 128 775 c 1
 147 800 l 1
 213.918208545 734.835106963 275.798283732 669.840998107 332.864804475 601.299644718 c 1
 389.980303472 670.198646482 451.683940098 735.973529879 518 802 c 1
 537 777 l 1
362 268 m 0
 362 248 347 232 328 232 c 0
 309 232 293 248 293 268 c 0
 293 288 309 304 328 304 c 0
 347 304 362 288 362 268 c 0
EndSplineSet
Validated: 1
EndChar

StartChar: B
Encoding: 66 66 2
Width: 544
VWidth: 0
Flags: W
HStem: 141.667 52.7822<-6.80642 43.122>
VStem: -7.20215 50.7256<141.971 194.145>
LayerCount: 2
Fore
SplineSet
18.1513671875 141.666992188 m 0
 4.140625 141.666992188 -7.2021484375 153.475585938 -7.2021484375 168.051757812 c 0
 -7.2021484375 182.627929688 4.1201171875 194.44921875 18.1513671875 194.44921875 c 0
 32.1611328125 194.44921875 43.50390625 182.656249999 43.5234375 168.051757812 c 0
 43.509765625 153.481445312 32.16796875 141.666992188 18.1513671875 141.666992188 c 0
416.408305682 255.245639628 m 1
 357.146317508 303.76273902 293.754759857 347.364281795 223.027148251 386.404780454 c 1
 158.866043888 352.082990394 88.9360909415 321.340420863 11.2529296875 294.016601562 c 1
 0.5693359375 326.89453125 l 1
 68.1576541184 350.667616374 129.55103583 376.967831958 186.233614461 405.957874828 c 1
 129.550412778 434.946787473 68.1561877432 461.24574485 0.5693359375 485.018554688 c 1
 11.2529296875 517.895507812 l 1
 88.9342557698 490.572605294 158.865346323 459.832332569 223.027224836 425.511922636 c 1
 293.750982774 464.551936026 357.140679313 508.151944753 416.407824383 556.664007784 c 1
 301.243954101 650.953871263 170.474578293 726.682673334 0.5693359375 786.428710938 c 1
 11.2529296875 819.307617188 l 1
 192.534179688 755.560546875 331.603515625 673.185546875 453.637695312 570.137695312 c 1
 443.126464844 556.662109375 l 1
 453.637695312 543.186523438 l 1
 393.632245489 492.532229351 329.516859597 446.870426522 258.295233953 405.958811231 c 1
 329.520281401 365.046712367 393.637229225 319.382284328 453.637695312 268.719726562 c 1
 443.126464844 255.244628906 l 1
 453.637695312 241.76953125 l 1
 331.584960938 138.73046875 192.528320312 56.359375 11.2529296875 -7.4013671875 c 1
 0.5693359375 25.4775390625 l 1
 170.469609381 85.237180549 301.226173943 160.960288353 416.408305682 255.245639628 c 1
EndSplineSet
Validated: 1
EndChar

StartChar: C
Encoding: 67 67 3
Width: 957
VWidth: 0
Flags: W
LayerCount: 2
Fore
SplineSet
6.046875 322.196289062 m 1
 -12.220703125 339.723632812 l 1
 7.60361232941 360.386349539 27.5642928117 380.522288289 47.755816003 400.138845476 c 1
 27.5639630215 419.757512995 7.60326224867 439.895614352 -12.220703125 460.560546875 c 1
 6.046875 478.0859375 l 1
 25.8878476383 457.403274938 45.8439432716 437.269908424 66.01571562 417.675213278 c 1
 243.589280646 586.22536001 440.922508785 715.353924685 720.892578125 809.983398438 c 1
 729 786 l 1
 452.819087846 692.651306518 259.419328456 566.301340809 84.2818573097 400.137130149 c 1
 259.41446786 233.964176572 452.831953862 107.604349641 729 14.24609375 c 1
 720.892578125 -9.7373046875 l 1
 440.935193763 84.9018158366 243.585573683 214.040364004 66.0159321257 382.600744683 c 1
 45.8444600001 363.008098203 25.8883145605 342.876821401 6.046875 322.196289062 c 1
EndSplineSet
Validated: 1
EndChar

StartChar: D
Encoding: 68 68 5
Width: 857
VWidth: 0
Flags: W
HStem: 359 78<57.7672 128.233> 792.983 20G<64.3464 211.091>
VStem: 54 78<362.767 433.233>
LayerCount: 2
Fore
SplineSet
54 398 m 0
 54 420 71 437 93 437 c 0
 115 437 132 420 132 398 c 0
 132 376 115 359 93 359 c 0
 71 359 54 376 54 398 c 0
71.1064453125 812.983398438 m 1
 351.075967243 718.354109709 548.400833529 589.225864965 725.972018799 420.676201947 c 1
 746.143194951 440.270585656 766.098814185 460.403622793 785.939453125 481.0859375 c 1
 804.208984375 463.560546875 l 1
 784.385018997 442.895614348 764.424424985 422.757512987 744.23276424 403.138845464 c 1
 764.424095201 383.522288282 784.384668925 363.386349535 804.208984375 342.723632812 c 1
 785.939453125 325.196289062 l 1
 766.098347316 345.876473535 746.142678304 366.007420949 725.971802383 385.599755982 c 1
 548.404540545 217.039859025 351.063282305 87.9016307994 71.1064453125 -6.7373046875 c 1
 63 17.24609375 l 1
 339.168046123 110.604349636 532.575209682 236.96417656 707.705113984 403.137130124 c 1
 532.570348989 569.301340796 339.180912168 695.651306513 63 789 c 1
 71.1064453125 812.983398438 l 1
EndSplineSet
Validated: 1
EndChar

StartChar: E
Encoding: 69 69 6
Width: 936
VWidth: 0
Flags: W
HStem: 29 64<20.6323 77.4663> 383.559 25.9889<-7 85.998 162.163 255.903>
VStem: 19 60<30.1899 91.8101>
LayerCount: 2
Fore
SplineSet
-7 409 m 1
 9.59517687859 409.360764715 26.0927403726 409.547994524 42.507907041 409.547994524 c 0
 60.8619679816 409.547994524 79.1130177744 409.313922915 97.2823269128 408.8266363 c 1
 78.0006637329 428.692163816 58.9364403211 449.080686297 40 470 c 1
 58 488 l 1
 79.0978563248 464.669566286 100.332783699 442.02448782 121.83553686 420.050854522 c 1
 292.432644805 591.777552048 481.898880696 723.332607629 751 820 c 1
 758 795 l 1
 495.404213119 701.154292557 310.641669616 573.95148081 143.720610313 407.009462695 c 1
 362.518466012 395.681272906 571.972720597 344.719773122 810 220 c 1
 799 197 l 1
 570.808403418 316.228135239 370.67218469 366.876457944 162.163192453 379.95812395 c 1
 322.763713336 224.776991371 502.151943161 105.289961351 752 16 c 1
 744 -9 l 1
 479.622834168 85.9704382115 292.109180557 214.61441511 123.837584658 381.942491959 c 0
 122.308821869 382.005243899 120.779495611 382.066099408 119.249591764 382.125070509 c 0
 100.673353282 362.925476438 82.285196663 343.220138109 64 323 c 1
 47 341 l 1
 59.9302342428 355.284185472 72.9200469633 369.320891114 85.9979816463 383.11259924 c 1
 71.6955616165 383.413451912 57.334446528 383.55905363 42.903302362 383.559053904 c 0
 26.3665089142 383.559053904 9.73775958451 383.367862848 -7 383 c 1
 -7 409 l 1
19 61 m 0
 19 79 33 93 49 93 c 0
 66 93 79 79 79 61 c 0
 79 43 66 29 49 29 c 0
 33 29 19 43 19 61 c 0
EndSplineSet
Validated: 1
EndChar

StartChar: F
Encoding: 70 70 7
Width: 1024
VWidth: 0
Flags: W
HStem: 520.435 23.1619<31 264.285> 688.597 23.8281<209 287.704 311.603 459.031>
VStem: 287.404 23.1619<543.501 687.965 712.146 800>
LayerCount: 2
Fore
SplineSet
208 712 m 1
 222.949047664 712.279944713 237.819726286 712.425094673 252.623619657 712.425094673 c 0
 264.35707373 712.425094673 276.048573121 712.333911063 287.703885504 712.146387896 c 1
 287.501898027 724.040507515 287.403609075 735.971014625 287.403609075 747.944064947 c 0
 287.403609075 765.201514938 287.607805595 782.547348979 288 800 c 1
 311 800 l 1
 310.714061103 784.845238448 310.565480775 769.782049276 310.565480775 754.797153401 c 0
 310.565480775 740.342810613 310.703726132 725.961315187 310.990288361 711.640749161 c 1
 538.602050904 705.398448468 753.783793111 660.803070546 1000 539 c 1
 990 518 l 1
 746.710102995 637.907163524 535.884094783 682.316911251 311.602579081 687.964760208 c 1
 313.314436504 634.145862579 317.219106403 581.101412141 323.858370649 528.190300349 c 1
 484.965672475 506.245083518 645.960084012 458.581583881 823 371 c 1
 812 349 l 1
 639.859518995 434.761745017 483.707508056 481.694348444 327.102731055 503.890298392 c 1
 349.295824832 347.178541772 396.22927622 190.775558694 482 18 c 1
 460 8 l 1
 372.41941758 185.037891606 324.756006514 346.030645708 302.810452466 507.136102755 c 1
 228.162664591 516.509577811 153.219241714 520.434519225 76.2026595696 520.434519225 c 0
 61.2179507239 520.434519225 46.1547615516 520.285938897 31 520 c 1
 31 543 l 1
 48.4526510212 543.392194405 65.7984850624 543.596390925 83.0559350532 543.596390925 c 0
 156.399273839 543.596390925 228.14621157 539.908174122 299.711715941 531.288284059 c 1
 293.436756957 583.385306331 289.775238517 635.578475545 288.247473483 688.413642584 c 1
 279.028978631 688.536687115 269.785287359 688.596950648 260.513252836 688.596950648 c 0
 243.444760451 688.596950648 226.280219713 688.392732266 209 688 c 1
 208 712 l 1
EndSplineSet
Validated: 1
EndChar

StartChar: G
Encoding: 71 71 8
Width: 1000
VWidth: 0
HStem: 215 63<671.641 731.252>
VStem: 670 63<216.641 276.351>
LayerCount: 2
Fore
SplineSet
701 215 m 0
 684 215 670 229 670 246 c 0
 670 264 684 278 701 278 c 0
 718 278 733 264 733 246 c 0
 733 229 719 215 701 215 c 0
745 776 m 1
 467.678039424 682.11043341 272.734536313 554.967177568 96.438235675 388 c 1
 249.501332302 243.036588175 416.620640283 128.092342022 639.505599607 38.8673192843 c 1
 765.591415194 97.1968363271 873.336837876 165.179933507 971.598643617 243.959420637 c 1
 826.556708791 359.325123006 660.851854111 452.086474849 446 525 c 1
 454 549 l 1
 678 473 849 376 1000 254 c 1
 992 244 l 1
 1000 234 l 1
 902.018550139 154.836179583 795.616097238 85.7775628145 671.77662511 26.2777244721 c 1
 695.542837204 17.2435996084 719.934943835 8.48597512783 745 0 c 1
 737 -24 l 1
 703.521714438 -12.7023742286 671.21440455 -0.91057523233 639.972289821 11.3843048157 c 1
 582.060529314 -15.0423500517 520.355711738 -39.4864549462 454 -62 c 1
 446 -38 l 1
 503.155756927 -18.6032499116 556.833440339 2.19810678914 607.569297158 24.4732632536 c 1
 392.40873615 113.669130014 228.383446914 228.039895544 78.3931313406 370.709795474 c 1
 58.0735448581 351.015977573 37.9757028386 330.782801943 18 310 c 1
 0 327 l 1
 19.970413386 347.869081988 40.0804128659 368.199760472 60.4245774536 388 c 1
 40.0804128659 407.800239528 19.970413386 428.130918012 0 449 c 1
 18 466 l 1
 37.9757028386 445.217198057 58.0735448581 424.984022427 78.3931313406 405.290204526 c 1
 257.09275984 575.268232895 455.714366679 705.076984421 737 800 c 1
 745 776 l 1
EndSplineSet
Validated: 1
EndChar

StartChar: I
Encoding: 73 73 10
Width: 296
VWidth: 0
Flags: MWO
LayerCount: 2
Fore
SplineSet
17 777 m 0
 17 793 30 806 47 806 c 0
 63 806 77 793 77 777 c 0
 77 760 63 747 47 747 c 0
 30 747 17 760 17 777 c 0
5 2 m 1
 4.72613652749 16.9529455992 4.58427516975 31.8278899487 4.58427516975 46.636171178 c 0
 4.58427516975 302.186713151 46.8324953139 537.884081406 182 812 c 1
 204 801 l 1
 71.2692729467 533.669099034 29.4041665057 304.781345249 29.4041665057 54.7194464053 c 0
 29.4041665057 37.2563310784 29.6083405797 19.6899504828 30 2 c 1
 5 2 l 1
EndSplineSet
Validated: 524289
EndChar

StartChar: J
Encoding: 74 74 11
Width: 574
VWidth: 0
Flags: W
HStem: 735 65<366.905 427.972>
VStem: 365 65<736.905 797.972>
LayerCount: 2
Fore
SplineSet
0 -181 m 1
 213 24 371 240 482 571 c 1
 507 562 l 1
 394 228 234 7 18 -200 c 1
 0 -181 l 1
365 767 m 0
 365 785 379 800 397 800 c 0
 415 800 430 785 430 767 c 0
 430 749 415 735 397 735 c 0
 379 735 365 749 365 767 c 0
EndSplineSet
Validated: 1
EndChar

StartChar: K
Encoding: 75 75 12
Width: 786
VWidth: 0
Flags: W
HStem: 737 62<-0.595947 58.5959>
VStem: -2 62<738.404 797.596>
LayerCount: 2
Fore
SplineSet
696 -10 m 1
 537.040088157 155.548923732 370.618209838 285.144736257 143.097653217 384.374595056 c 1
 96.6785035994 364.37020124 47.7851691629 345.590517779 -4 328 c 1
 -12 352 l 1
 30.9596591463 366.504065135 71.8776525444 381.828612657 111.00701045 398.000000022 c 1
 71.8776525229 414.171387503 30.9596591609 429.49593501 -12 444 c 1
 -4 468 l 1
 47.7851691629 450.409482221 96.6785035994 431.62979876 143.097653217 411.625404944 c 1
 370.618209838 510.855263743 537.040088157 640.451076268 696 806 c 1
 714 789 l 1
 558.237166535 626.846896497 394.179611552 497.872678778 173.918508259 397.999999979 c 1
 394.179611552 298.127321287 558.23716651 169.153103582 714 7 c 1
 696 -10 l 1
29 737 m 0
 12 737 -2 751 -2 768 c 0
 -2 785 12 799 29 799 c 0
 46 799 60 785 60 768 c 0
 60 751 46 737 29 737 c 0
EndSplineSet
Validated: 1
EndChar

StartChar: L
Encoding: 76 76 13
Width: 901
VWidth: 0
Flags: W
HStem: -0 22.389<616.432 843> 725 56<155.69 210.259>
VStem: 155 56<725.741 780.31> 287 22.4355<573.999 799>
LayerCount: 2
Fore
SplineSet
309 800 m 1
 309.286844329 785.198832621 309.435458814 770.483236098 309.435458814 755.840560051 c 0
 309.435458814 548.378341847 279.602366879 355.554287892 190.400489697 141.388553604 c 1
 400.202725403 52.7501047349 588.826017871 22.3890214389 792.087483982 22.3890214389 c 0
 808.950751563 22.3890214389 825.914772669 22.597994651 843 23 c 1
 843 0 l 1
 828 0 814 -0 799 -0 c 0
 590.822137939 1.06581410364e-14 396.939804052 30.0958487862 181.458110823 120.308725008 c 1
 169.632088164 92.9269310479 156.83288601 65.1819244834 143 37 c 1
 122 48 l 1
 135.721308574 75.5523876159 148.418404907 102.658941668 160.150809841 129.395055224 c 1
 134.115951144 140.699377442 107.753028358 152.883729287 81 166 c 1
 91 187 l 1
 117.455784668 173.919630629 143.514998667 161.767816972 169.242328549 150.494141569 c 1
 257.329943123 358.770066635 287 545.467519098 287 747 c 0
 287 764 286 782 286 799 c 1
 309 800 l 1
183 725 m 0
 167 725 155 738 155 753 c 0
 155 769 167 781 183 781 c 0
 198 781 211 769 211 753 c 0
 211 738 198 725 183 725 c 0
EndSplineSet
Validated: 1
EndChar

StartChar: M
Encoding: 77 77 14
Width: 1447
VWidth: 0
Flags: W
HStem: -34.1602 93.834<1063.19 1142.17>
VStem: 1055.79 93.7754<-26.7414 52.2572>
LayerCount: 2
Fore
SplineSet
1149.56445312 12.767578125 m 0
 1149.56445312 -13.1142578125 1128.57714844 -34.1220703125 1102.63964844 -34.16015625 c 0
 1076.83496094 -34.16015625 1055.7890625 -13.208984375 1055.7890625 12.728515625 c 0
 1055.7890625 38.6083984375 1076.72167969 59.6533203125 1102.63964844 59.673828125 c 0
 1128.5390625 59.673828125 1149.56445312 38.6650390625 1149.56445312 12.767578125 c 0
947.851538298 767.778174133 m 1
 856.307721785 652.834095611 774.430870964 529.628768159 701.533635121 391.38061735 c 1
 763.346233282 271.873859996 818.640287578 141.437822406 867.735351562 -3.822265625 c 1
 831.8125 -15.9658203125 l 1
 786.563264763 117.914446579 736.124941906 238.777220714 680.17040346 349.919482373 c 1
 624.220839728 238.780552565 573.785317169 117.918999914 528.529296875 -15.9658203125 c 1
 492.61 -3.822265625 l 1
 541.712541266 141.441189718 597.001937433 271.874625683 658.807796946 391.377055664 c 1
 585.907101815 529.624333873 504.025579225 652.832694365 412.491193598 767.775290974 c 1
 239.901340778 551.049808152 101.628317655 304.95413721 -6.830078125 -15.9658203125 c 1
 -42.75390625 -3.822265625 l 1
 70.060546875 329.977539062 215.600585938 585.471679687 397.75 809.962890625 c 1
 412.491210937 798.000964806 l 1
 427.232421875 809.962890625 l 1
 521.087662922 694.289391838 605.223701129 570.380783394 680.1709112 431.772772894 c 1
 755.113330196 570.381129349 839.244097998 694.287099365 933.110351562 809.962890625 c 1
 947.8515625 798.000568085 l 1
 962.592773438 809.962890625 l 1
 1144.76171875 585.469726562 1290.26464844 329.958984375 1403.07910156 -3.822265625 c 1
 1367.15429688 -15.9658203125 l 1
 1258.69447664 304.938446449 1120.45579089 551.051947127 947.851538298 767.778174133 c 1
EndSplineSet
Validated: 1
EndChar

StartChar: N
Encoding: 78 78 15
Width: 1000
VWidth: 0
HStem: -40 94<662.099 740.606>
VStem: 655 93<-32.6061 46.6061>
LayerCount: 2
Fore
SplineSet
748 7 m 0
 748 -19 727 -40 701 -40 c 0
 675 -40 655 -19 655 7 c 0
 655 33 675 54 701 54 c 0
 727 54 748 33 748 7 c 0
29 800 m 1
 122.332881555 685.009764714 206.093498403 561.77674593 280.693179757 423.856785997 c 1
 355.172397838 561.77674593 438.667118445 685.009764714 532 800 c 1
 547.254237288 787.796610169 l 1
 562 800 l 1
 743 577 888 323 1000 -9 c 1
 964 -22 l 1
 856.022407424 298.041693304 718.710022592 542.380696902 547.460258683 757.963396323 c 1
 456.112230178 643.582131302 374.576780418 521.105899918 302.029000092 383.522973049 c 1
 363.416473024 264.842407868 418.324719908 135.287437415 467 -9 c 1
 432 -22 l 1
 386.91492595 111.630534796 336.715609472 232.063024615 281 342.714899253 c 1
 225.284390528 232.063024615 175.08507405 111.630534796 130 -22 c 1
 94 -9 l 1
 143.186926498 135.513801745 198.247450449 265.248874414 259.676412059 384.081466276 c 1
 183.373844873 528.693658592 97.134630856 656.616654814 -0 776 c 1
 29 800 l 1
EndSplineSet
Validated: 1
EndChar

StartChar: Z
Encoding: 90 90 16
Width: 1000
VWidth: 0
LayerCount: 2
Fore
SplineSet
71.0185546875 408.662109375 m 1
 119.554223754 358.074650144 168.782975314 310.823478821 220.221687412 266.748321039 c 1
 369.074737089 332.36047718 491.823065704 410.973100761 603.543544503 504.182957637 c 1
 453.676011623 629.223669405 283.963982044 728.001266502 58.01171875 804.366210938 c 1
 66 828 l 1
 296.363655308 750.143349487 469.942305799 648.587257413 622.816419431 520.499164189 c 1
 673.681448657 564.186560095 722.394323609 610.986805634 770.42578125 661.055664062 c 1
 788.427734375 643.78515625 l 1
 740.86726425 594.207190427 692.510868449 547.70823052 642.014411897 504.182599298 c 1
 692.510868449 460.655741038 740.86726425 414.156090823 788.427734375 364.578125 c 1
 770.42578125 347.307617188 l 1
 722.394225586 397.376577797 673.681309671 444.177630279 622.816243098 487.866375896 c 1
 511.342495207 394.469254448 388.859870238 315.182006386 241.379326042 248.90479936 c 1
 390.413277752 125.220965034 559.245531769 27.3771651403 783.444335938 -48.384765625 c 1
 775.458007812 -72.0185546875 l 1
 543.760619537 6.27680561665 369.504168341 108.563938523 215.963620888 237.719424721 c 1
 168.672084842 217.339606916 118.829266231 198.240434815 66 180.387695312 c 1
 58.01171875 204.021484375 l 1
 106.038828369 220.251280481 151.525073602 237.493693845 194.819957301 255.785739722 c 1
 145.99022744 298.158027423 99.1309839813 343.327681283 53.017578125 391.390625 c 1
 71.0185546875 408.662109375 l 1
EndSplineSet
Validated: 1
EndChar

StartChar: H
Encoding: 72 72 17
Width: 796
VWidth: 0
Flags: W
HStem: 3 21G<235 259> 368 60<362.106 419.82>
VStem: 235.425 24.5753<3 235.625> 361 60<369.106 426.82> 518 24<1 234.906>
LayerCount: 2
Fore
SplineSet
235 3 m 5
 235.279607012 18.2106214398 235.424744284 33.3305539857 235.424744284 48.3725637016 c 4
 235.424744284 302.315398486 194.059160866 534.049442475 60 805 c 5
 81 816 l 5
 216 543 260 308 260 54 c 4
 260 37 259 20 259 3 c 5
 235 3 l 5
361 398 m 4
 361 414 374 428 391 428 c 4
 407 428 421 415 421 398 c 4
 421 381 407 368 391 368 c 4
 374 368 361 381 361 398 c 4
518 0 m 5
 518 15 518 30 518 45 c 4
 518 302 560 539 696 814 c 5
 718 803 l 5
 585 534 542 304 542 53 c 4
 542 36 543 18 543 1 c 5
 518 0 l 5
EndSplineSet
Validated: 1
EndChar

StartChar: O
Encoding: 79 79 18
Width: 1310
VWidth: 0
Flags: W
HStem: 354 97<620.385 700.668> 791 20G<556.353 654 654 751.647>
VStem: 612 97<362.332 442.615>
LayerCount: 2
Fore
SplineSet
1256 282 m 1
 1225.29801416 313.845144882 1194.43601046 344.863530769 1163.25719528 375.068223793 c 1
 1011.58804348 231.399692552 852.273711714 107.809947836 657 -4 c 1
 654 1.05263157895 l 1
 651 -4 l 1
 455.620192967 107.870695962 296.238851104 231.533992583 144.984570687 375.302413781 c 1
 113.723525985 345.023869009 82.7813399317 313.927453653 52 282 c 1
 23 309 l 1
 53.897147383 341.035463339 85.0058479442 372.27760226 116.472310401 402.73071702 c 1
 85.4586779755 432.918276885 54.7161327392 463.983713494 24 496 c 1
 52 523 l 1
 82.7273473056 491.128549337 113.614976957 460.085224129 144.820071443 429.856925833 c 1
 298.540640286 575.272136229 461.706569049 702.156277203 651 811 c 1
 654 805.631578947 l 1
 657 811 l 1
 846.293430951 702.156277203 1009.45935971 575.272136229 1163.17992856 429.856925833 c 1
 1194.38502304 460.085224129 1225.27265269 491.128549337 1256 523 c 1
 1285 496 l 1
 1254.02432476 463.883115668 1223.04864951 432.723065919 1191.82165283 402.446187573 c 1
 1223.18790418 372.083009297 1254.1990709 340.935700175 1285 309 c 1
 1256 282 l 1
1134.61332734 402.5 m 1
 987.747896483 541.515321348 832.898010406 662.802188596 653.999999453 767.699240575 c 1
 475.101989151 662.802188422 320.252103406 541.515321386 173.386672665 402.5 c 1
 320.252103517 263.484678652 475.101989594 142.197811404 654.000000547 37.3007594247 c 1
 832.898010849 142.197811578 987.747896594 263.484678614 1134.61332734 402.5 c 1
709 402 m 0
 709 376 687 354 661 354 c 0
 634 354 612 376 612 402 c 0
 612 429 634 451 661 451 c 0
 687 451 709 429 709 402 c 0
EndSplineSet
Validated: 1
EndChar

StartChar: S
Encoding: 83 83 19
Width: 1000
VWidth: 0
LayerCount: 2
Fore
SplineSet
62.5556640625 -14.8564453125 m 1
 275.041129111 56.9713584945 431.929819277 150.966399874 571.066271492 271.091837376 c 1
 463.738201691 363.747859665 345.828139416 440.855499495 199.983749291 504.233437543 c 1
 156.72907486 466.696938969 115.172862278 426.621793196 74.1728515625 383.887695312 c 1
 58.064453125 399.341796875 l 1
 96.8824262207 439.801418553 136.293994347 477.971192714 177.211754651 513.922334047 c 1
 140.794611658 529.091360091 102.650014921 543.443314605 62.5234375 557.004882812 c 1
 69.6708984375 578.153320312 l 1
 114.033733676 563.159772824 156.043253997 547.183473842 196.021234688 530.199493242 c 1
 335.303377405 648.887356158 493.2089743 742.583783965 704.494140625 814.000976562 c 1
 711.641601562 792.853515625 l 1
 507.100251333 723.716652077 354.057056387 634.053548362 218.805649483 520.314188121 c 1
 363.230584586 456.329223268 480.931189727 378.608237588 587.987048837 285.905436242 c 1
 626.308948853 319.917719636 663.37630579 355.964748318 700.00390625 394.131835938 c 1
 716.111328125 378.67578125 l 1
 679.793363443 340.831363928 642.959692989 304.989337384 604.86252202 271.091837376 c 1
 642.962471736 237.19372158 679.796349276 201.350699598 716.111328125 163.504882812 c 1
 700.00390625 148.049804688 l 1
 663.379993285 186.218082151 626.311453865 222.265873287 587.987048837 256.278533253 c 1
 446.286970705 133.566910433 285.969595764 37.1022405399 69.7041015625 -36.00390625 c 1
 62.5556640625 -14.8564453125 l 1
EndSplineSet
Validated: 1
EndChar

StartChar: P
Encoding: 80 80 20
Width: 724
VWidth: 0
Flags: W
HStem: -8 70<93.7969 158.344>
VStem: 91 70<-5.34375 59.2031>
LayerCount: 2
Fore
SplineSet
126 -8 m 0
 107 -8 91 7 91 27 c 0
 91 46 107 62 126 62 c 0
 146 62 161 46 161 27 c 0
 161 7 146 -8 126 -8 c 0
599 509.268554688 m 1
 454.1328125 613.384765625 290.185014278 702.356489607 87 771 c 1
 96 798 l 1
 321 721.723632812 496 626.110351562 651 510 c 1
 605 476 559.168294579 444.726030505 509 414 c 0
 388.904296875 340.446289062 253.853515625 277.221679688 96 223 c 1
 90 253 l 1
 246 306 379 368 497 441 c 0
 529.09781549 460.857123142 565.538085938 485.88671875 599 509.268554688 c 1
EndSplineSet
Validated: 1
EndChar

StartChar: Q
Encoding: 81 81 21
Width: 1348
VWidth: 0
Flags: W
HStem: 355 94<632.394 711.606>
VStem: 625 94<362.394 441.606>
LayerCount: 2
Fore
SplineSet
1260 285 m 1
 1230.20719653 315.938680525 1200.28040998 346.046665926 1170.06172568 375.341502276 c 1
 1029.51593034 241.777974781 880.715341453 124.783192705 710.244358629 23.5186810869 c 1
 845.62724646 -51.8784979185 995.286599109 -118.137142014 1166 -176 c 1
 1154 -212 l 1
 735.296969945 -70.111031395 440.10608352 123.304475657 174.104011817 375.502161842 c 1
 143.829012905 346.156748109 113.847269743 315.995241656 84 285 c 1
 57 311 l 1
 86.6979185625 341.996188226 116.60652514 372.202296397 146.866858566 401.626872318 c 1
 116.61798233 430.973300917 86.7095969766 461.094043414 57 492 c 1
 84 518 l 1
 113.740379709 487.049842133 143.653541184 456.922938561 173.889082614 427.602894961 c 1
 322.194656184 568.514622953 479.816787183 690.985485756 663 796 c 1
 672 779.5 l 1
 681 796 l 1
 864.161058166 690.998186482 1021.76721699 568.544246582 1170.0571076 427.654020837 c 1
 1200.277361 456.950266636 1230.20567887 487.059743439 1260 518 c 1
 1287 492 l 1
 1257.3440673 461.047633088 1227.4780419 430.883113837 1197.2657381 401.497930642 c 1
 1227.48084619 372.114053844 1257.34545959 341.950913766 1287 311 c 1
 1260 285 l 1
1142.76893358 401.5 m 1
 998.994839399 537.709846423 847.635692204 655.859177255 671.999999319 757.802602423 c 1
 496.341827134 655.846129013 344.966415087 537.679601668 201.175860635 401.447697463 c 1
 344.742600349 265.448357119 496.476932635 147.285000089 672.070029009 45.2380459341 c 1
 847.675926121 147.172229117 999.013948181 265.308256829 1142.76893358 401.5 c 1
719 402 m 0
 719 376 698 355 672 355 c 0
 646 355 625 376 625 402 c 0
 625 428 646 449 672 449 c 0
 698 449 719 428 719 402 c 0
EndSplineSet
Validated: 1
EndChar

StartChar: R
Encoding: 82 82 22
Width: 1000
VWidth: 0
HStem: 17 77<78.745 147.255>
VStem: 75 76<20.7672 90.2328>
LayerCount: 2
Fore
SplineSet
113 17 m 0
 92 17 75 34 75 56 c 0
 75 77 92 94 113 94 c 0
 134 94 151 77 151 55 c 0
 151 34 134 17 113 17 c 0
978 384 m 1
 953.658206093 409.32862339 929.208208583 433.98097426 904.516534338 457.96595082 c 1
 790.346692715 349.61911405 669.637768078 254.44563849 531.113589269 171.610252172 c 1
 641.183479796 110.396816078 762.941049541 56.7123089397 902 10 c 1
 892 -19 l 1
 551.821935681 95.8427224811 311.559408535 253.073854672 95.479187656 457.961795245 c 1
 70.7889673264 433.978126794 46.3403881105 409.327160601 22 384 c 1
 0 406 l 1
 24.1522624983 431.124836827 48.4621751341 455.619073104 73.0447327649 479.4869679 c 1
 48.4512087094 503.359722263 24.1410181848 527.86141908 0 553 c 1
 22 574 l 1
 46.1479877864 548.845846056 70.4275837166 524.359856534 94.9620399361 500.529808082 c 1
 215.589368353 615.03224429 343.49977639 714.691360905 492 800 c 1
 500 786.5 l 1
 508 800 l 1
 656.483585756 714.700918821 784.381969417 615.054575575 904.997414804 500.568293823 c 1
 929.525673313 524.365851779 953.816238258 548.835815484 978 574 c 1
 1000 553 l 1
 975.844060328 527.871337925 951.530422511 503.373468432 926.944039158 479.497869493 c 1
 951.530422511 455.626531568 975.844060328 431.128662075 1000 406 c 1
 978 384 l 1
882.561081943 479.05358937 m 1
 765.854067394 589.866515072 642.94460828 686.012803957 500.000000626 768.414636636 c 1
 357.033625577 686.000256555 234.108501535 589.837233682 117.385604388 479.002966786 c 1
 233.991635275 368.381812904 357.111470984 272.296077575 499.711982455 189.459790125 c 1
 642.77952146 272.629160392 765.775690853 368.390393957 882.561081943 479.05358937 c 1
EndSplineSet
Validated: 1
EndChar

StartChar: T
Encoding: 84 84 23
Width: 1012
VWidth: 0
HStem: 591 25.4403<698.812 936>
VStem: 215 25<-33 200.828>
LayerCount: 2
Fore
SplineSet
216 -34 m 1
 216 -16 215 1 215 18 c 0
 215 239.670575755 246.017449915 446.866341549 337.809662356 673.922658087 c 1
 256.687149806 700.623666998 173.645933756 734.829043532 87 778 c 1
 98 800 l 1
 184.513828225 757.461639278 267.062326722 723.76265941 347.521285394 697.478409835 c 1
 363.845763879 736.321077394 381.956590213 775.772029652 402 816 c 1
 424 805 l 1
 404.767211942 765.842596976 387.334051897 727.508428042 371.570718751 689.822659047 c 1
 544.951391699 636.077819756 709.410971676 616.440252821 884.001237486 616.440252821 c 0
 901.229410832 616.440252821 918.556229674 616.631469641 936 617 c 1
 937 592 l 1
 919 592 902 591 885 591 c 0
 707.218714861 591 538.747840757 610.950880789 361.875051963 666.203324661 c 1
 271.196926324 441.015856097 240 237.980475887 240 19 c 0
 240 2 241 -16 241 -33 c 1
 216 -34 l 1
EndSplineSet
Validated: 1
EndChar

StartChar: U
Encoding: 85 85 24
Width: 1000
VWidth: 0
HStem: 1 21G<376 469 469 562> 730 70<93.6562 157.359 755.797 820.203>
VStem: 91 69<732.469 797.531> 753 70<732.797 797.203>
LayerCount: 2
Fore
SplineSet
126 730 m 0
 106 730 91 746 91 765 c 0
 91 784 106 800 126 800 c 0
 145 800 160 784 160 765 c 0
 160 746 145 730 126 730 c 0
926 361 m 1
 790 220 648 100 476 1 c 1
 469 13 l 1
 462 1 l 1
 290 100 148 220 12 361 c 1
 32 381 l 1
 165.142416471 241.940142676 302.175511064 126.224355477 468.99999947 29.0562092935 c 1
 635.824488535 126.224355295 772.857583427 241.940142691 906 381 c 1
 926 361 l 1
788 730 m 0
 769 730 753 746 753 765 c 0
 753 784 769 800 788 800 c 0
 807 800 823 784 823 765 c 0
 823 746 807 730 788 730 c 0
EndSplineSet
Validated: 1
EndChar

StartChar: V
Encoding: 86 86 25
Width: 1000
VWidth: 0
LayerCount: 2
Fore
SplineSet
86 790 m 1
 186 493 322 286 500 98 c 1
 678 286 814 493 914 790 c 1
 940 781 l 1
 838 480 700 269 519 78 c 1
 540 56 561 35 584 14 c 1
 565 -6 l 1
 543 15 521 37 500 58 c 1
 479 37 457 15 435 -6 c 1
 416 14 l 1
 439 35 460 56 481 78 c 1
 300 269 162 480 60 781 c 1
 86 790 l 1
EndSplineSet
Validated: 1
EndChar

StartChar: W
Encoding: 87 87 26
Width: 1494
VWidth: 0
Flags: W
HStem: 774 70<676.797 741.203> 793 20G<435 495.287 1270.3 1349>
VStem: 674 70<776.797 841.203>
LayerCount: 2
Fore
SplineSet
674 809 m 0xa0
 674 828 690 844 709 844 c 0
 728 844 744 828 744 809 c 0
 744 790 728 774 709 774 c 0
 690 774 674 790 674 809 c 0xa0
462 813 m 1x60
 528.574620164 616.604870517 609.923173828 457.760155345 708.265521606 317.85317702 c 1
 807.267078132 458.376412825 889.094185709 618.070299389 956 816 c 1
 983 807 l 1
 913.687324528 603.038930373 828.558463751 438.456934361 725.596207346 293.632057004 c 1
 776.55675118 223.653589511 831.935178565 158.281969664 892.022414709 95.077901513 c 1
 1077.46658557 289.948835879 1218.60608143 505.424813655 1322 813 c 1
 1349 804 l 1
 1243.69645488 492.440750798 1099.76640423 272.524779407 911.936786367 74.3840183286 c 1
 933.68654648 52.0520191265 956.03658159 29.9606490475 979 8 c 1
 960 -13 l 1
 936.913518727 9.18700797689 914.416347089 31.5238404373 892.499500877 54.1163113881 c 1
 870.583652911 31.5238404373 848.086481273 9.18700797689 825 -13 c 1
 805 8 l 1
 828.136493394 30.1261661719 850.660530131 52.3850312862 872.582423237 74.88900734 c 1
 813.657435351 137.080167004 759.045497377 201.421590449 708.563278153 270.072511365 c 1
 658.500911451 201.969362292 604.35305834 138.120569564 545.900563016 76.3943448864 c 1
 567.670271353 54.0581640569 590.033387841 31.9637033309 613 10 c 1
 593 -11 l 1
 570.084209945 11.0229670663 547.74904755 33.1935513345 525.98670268 55.6162133628 c 1
 504.241111304 33.1935513345 481.915790055 11.0229670663 459 -11 c 1
 439 10 l 1
 461.963616988 31.9608389535 484.313840066 54.0524011991 506.063777879 76.3856060375 c 1
 318.233884013 274.541166754 174.303650566 494.570160716 69 807 c 1
 96 816 l 1
 199.393918574 507.555957196 340.53341443 291.966034508 525.977585291 97.080157002 c 1
 585.597167652 159.797122244 640.58095253 224.658283773 691.213125125 294.068285573 c 1
 588.774922501 438.175535092 503.911191016 601.785193577 435 804 c 1
 462 813 l 1x60
EndSplineSet
Validated: 1
EndChar

StartChar: X
Encoding: 88 88 27
Width: 744
VWidth: 0
Flags: W
HStem: 711 67<359.33 421.683>
VStem: 357 67<713.33 775.683>
LayerCount: 2
Fore
SplineSet
176 16 m 1
 240.459385147 78.1047044109 299.98068095 141.162373432 354.793379986 207.9014188 c 1
 228.096347946 365.828577452 126.655634518 545.798818168 47 780 c 1
 73 789 l 1
 150.522595132 559.802762218 248.948678111 384.227515 372.260555956 229.496808271 c 1
 495.490693637 384.227515 594.151514391 559.802762218 671 789 c 1
 697 780 l 1
 618.058684847 545.898168855 516.424531504 365.981277876 389.576213455 208.102413955 c 1
 444.484178686 141.288972787 504.181278016 78.1670469935 569 16 c 1
 550 -3 l 1
 485.957509782 58.1576933618 426.741810248 120.563694659 372.088819645 186.666761962 c 1
 317.341410281 120.563694659 258.042490218 58.1576933618 194 -3 c 1
 176 16 l 1
357 745 m 0
 357 763 372 778 391 778 c 0
 409 778 424 763 424 745 c 0
 424 726 409 711 391 711 c 0
 372 711 357 726 357 745 c 0
EndSplineSet
Validated: 1
EndChar

StartChar: Y
Encoding: 89 89 28
Width: 772
VWidth: 0
Flags: W
HStem: 725 69<386.797 451.531>
VStem: 384 70<727.641 791.203>
LayerCount: 2
Fore
SplineSet
196 5 m 1
 263.124252524 69.2474988448 324.731363894 134.414521217 381.703081671 204.028057364 c 1
 250.137365742 367.81919808 145.480873081 553.466956535 63 796 c 1
 90 805 l 1
 169.718128883 567.789957968 272.119113461 386.341936201 399.959409249 226.659650083 c 1
 526.88088654 386.341936199 629.28187112 567.789957968 709 805 c 1
 736 796 l 1
 653 549 545 361 411 195 c 0
 351 122 286 53 216 -15 c 1
 196 5 l 1
384 759 m 0
 384 778 400 794 419 794 c 0
 438 794 454 779 454 759 c 0
 454 740 438 725 419 725 c 0
 400 725 384 740 384 759 c 0
EndSplineSet
Validated: 1
EndChar
